<svg width="61" height="24" viewBox="0 0 61 24" fill="none" xmlns="http://www.w3.org/2000/svg">
<path d="M18.75 20H5.25C4.41986 20.0001 3.62117 19.6824 3.01777 19.1123C2.41437 18.5422 2.052 17.7628 2.005 16.934L2 16.75V6.25C1.99993 5.67987 2.2163 5.13098 2.60537 4.71425C2.99444 4.29751 3.52721 4.04402 4.096 4.005L4.25 4H16.75C17.3201 3.99993 17.869 4.2163 18.2858 4.60537C18.7025 4.99444 18.956 5.52721 18.995 6.096L19 6.25V7H19.75C20.3201 6.99993 20.869 7.2163 21.2858 7.60537C21.7025 7.99444 21.956 8.52721 21.995 9.096L22 9.25V16.75C22.0001 17.5801 21.6824 18.3788 21.1123 18.9822C20.5422 19.5856 19.7628 19.948 18.934 19.995L18.75 20H5.25H18.75ZM5.25 18.5H18.75C19.1893 18.5 19.6126 18.3347 19.9357 18.037C20.2588 17.7392 20.4581 17.3309 20.494 16.893L20.5 16.75V9.25C20.5 9.06876 20.4344 8.89366 20.3152 8.75707C20.1961 8.62048 20.0316 8.53165 19.852 8.507L19.75 8.5H19V16.25C19 16.4312 18.9344 16.6063 18.8152 16.7429C18.6961 16.8795 18.5316 16.9684 18.352 16.993L18.25 17C18.0688 17 17.8937 16.9344 17.7571 16.8152C17.6205 16.6961 17.5316 16.5316 17.507 16.352L17.5 16.25V6.25C17.5 6.06876 17.4344 5.89366 17.3152 5.75707C17.1961 5.62048 17.0316 5.53165 16.852 5.507L16.75 5.5H4.25C4.06876 5.50001 3.89366 5.56564 3.75707 5.68477C3.62048 5.80389 3.53165 5.96845 3.507 6.148L3.5 6.25V16.75C3.50002 17.1892 3.66517 17.6123 3.96268 17.9354C4.26019 18.2585 4.6683 18.4579 5.106 18.494L5.25 18.5H18.75H5.25ZM12.246 14.5H15.252C15.442 14.5001 15.6249 14.5722 15.7638 14.702C15.9026 14.8317 15.9871 15.0093 16 15.1989C16.013 15.3885 15.9535 15.5759 15.8336 15.7233C15.7137 15.8707 15.5423 15.9671 15.354 15.993L15.252 16H12.246C12.056 15.9999 11.8731 15.9278 11.7342 15.798C11.5954 15.6683 11.5109 15.4907 11.498 15.3011C11.485 15.1115 11.5445 14.9241 11.6644 14.7767C11.7843 14.6293 11.9558 14.5329 12.144 14.507L12.246 14.5H15.252H12.246ZM9.243 11.005C9.44191 11.005 9.63268 11.084 9.77333 11.2247C9.91398 11.3653 9.993 11.5561 9.993 11.755V15.25C9.993 15.4489 9.91398 15.6397 9.77333 15.7803C9.63268 15.921 9.44191 16 9.243 16H5.748C5.54909 16 5.35832 15.921 5.21767 15.7803C5.07702 15.6397 4.998 15.4489 4.998 15.25V11.755C4.998 11.5561 5.07702 11.3653 5.21767 11.2247C5.35832 11.084 5.54909 11.005 5.748 11.005H9.243ZM8.493 12.505H6.498V14.5H8.493V12.505ZM12.246 11.005H15.252C15.442 11.0051 15.6249 11.0772 15.7638 11.207C15.9026 11.3367 15.9871 11.5143 16 11.7039C16.013 11.8935 15.9535 12.0809 15.8336 12.2283C15.7137 12.3757 15.5423 12.4721 15.354 12.498L15.252 12.505H12.246C12.0546 12.5069 11.8697 12.4357 11.7292 12.3057C11.5887 12.1758 11.5032 11.9971 11.4901 11.8061C11.4771 11.6152 11.5375 11.4265 11.6591 11.2787C11.7807 11.1308 11.9541 11.0351 12.144 11.011L12.246 11.005H15.252H12.246ZM5.748 7.502H15.252C15.4434 7.50005 15.6283 7.57134 15.7688 7.70127C15.9093 7.8312 15.9948 8.00993 16.0079 8.20088C16.0209 8.39182 15.9605 8.58052 15.8389 8.72834C15.7173 8.87616 15.5439 8.97192 15.354 8.996L15.252 9.002H5.748C5.55798 9.00194 5.37506 8.92976 5.23621 8.80003C5.09736 8.6703 5.01293 8.4927 4.99997 8.30312C4.98702 8.11354 5.04652 7.92611 5.16643 7.7787C5.28635 7.63129 5.45775 7.5349 5.646 7.509L5.748 7.502H15.252H5.748V7.502Z" fill="black"/>
<path d="M24.656 9.94C24.712 10.076 24.76 10.216 24.8 10.36C24.84 10.504 24.868 10.648 24.884 10.792C25.124 10.552 25.408 10.344 25.736 10.168C26.064 9.984 26.4 9.892 26.744 9.892C27.408 9.892 27.876 10.092 28.148 10.492C28.428 10.892 28.568 11.4 28.568 12.016V16H27.584V12.34C27.584 12.092 27.564 11.848 27.524 11.608C27.492 11.368 27.404 11.172 27.26 11.02C27.124 10.86 26.896 10.78 26.576 10.78C26.28 10.78 25.984 10.864 25.688 11.032C25.4 11.192 25.152 11.372 24.944 11.572V16H23.96V11.776C23.96 11.616 23.948 11.432 23.924 11.224C23.9 11.008 23.86 10.8 23.804 10.6C23.748 10.392 23.668 10.22 23.564 10.084L24.656 9.94ZM32.8025 9.892C33.5225 9.892 34.0665 10.108 34.4345 10.54C34.8105 10.964 34.9985 11.524 34.9985 12.22C34.9985 12.332 34.9905 12.448 34.9745 12.568C34.9665 12.68 34.9545 12.8 34.9385 12.928H31.1465C31.1465 13.688 31.3145 14.276 31.6505 14.692C31.9865 15.108 32.4345 15.316 32.9945 15.316C33.4505 15.316 33.9545 15.172 34.5065 14.884L34.8785 15.484C34.5985 15.708 34.2825 15.876 33.9305 15.988C33.5785 16.1 33.2225 16.156 32.8625 16.156C32.2385 16.156 31.7185 16.008 31.3025 15.712C30.8945 15.416 30.5905 15.032 30.3905 14.56C30.1905 14.088 30.0905 13.596 30.0905 13.084C30.0905 12.684 30.1465 12.296 30.2585 11.92C30.3705 11.544 30.5385 11.204 30.7625 10.9C30.9945 10.588 31.2785 10.344 31.6145 10.168C31.9505 9.984 32.3465 9.892 32.8025 9.892ZM32.7065 10.648C32.4345 10.648 32.1945 10.724 31.9865 10.876C31.7785 11.028 31.6105 11.224 31.4825 11.464C31.3545 11.696 31.2665 11.936 31.2185 12.184H33.9545C33.9705 11.688 33.8665 11.308 33.6425 11.044C33.4185 10.78 33.1065 10.648 32.7065 10.648ZM36.6802 10.036L37.7122 13.504C37.7442 13.608 37.7722 13.716 37.7962 13.828C37.8282 13.94 37.8602 14.076 37.8922 14.236C37.9242 14.076 37.9522 13.944 37.9762 13.84C38.0082 13.728 38.0402 13.624 38.0722 13.528L39.1642 10.036H39.8722L40.9162 13.504C40.9482 13.608 40.9762 13.716 41.0002 13.828C41.0322 13.94 41.0642 14.076 41.0962 14.236C41.1282 14.076 41.1602 13.94 41.1922 13.828C41.2242 13.716 41.2562 13.608 41.2882 13.504L42.3562 10.036H43.2442L41.3602 16.072H40.6402C40.5042 15.608 40.3682 15.164 40.2322 14.74C40.0962 14.308 39.9642 13.864 39.8362 13.408C39.7082 12.952 39.5722 12.444 39.4282 11.884C39.2842 12.444 39.1402 12.952 38.9962 13.408C38.8602 13.864 38.7202 14.308 38.5762 14.74C38.4402 15.164 38.2962 15.608 38.1442 16.072H37.4122L35.6482 10.036H36.6802ZM46.1428 9.892C46.4148 9.892 46.6828 9.928 46.9468 10C47.2188 10.064 47.4668 10.168 47.6908 10.312L47.3428 11.08C47.1668 10.936 46.9708 10.828 46.7548 10.756C46.5388 10.684 46.3268 10.648 46.1188 10.648C45.8228 10.648 45.5628 10.716 45.3388 10.852C45.1228 10.988 45.0148 11.192 45.0148 11.464C45.0148 11.76 45.1108 11.98 45.3028 12.124C45.5028 12.268 45.7388 12.404 46.0108 12.532C46.2748 12.652 46.5388 12.788 46.8028 12.94C47.0748 13.084 47.3028 13.272 47.4868 13.504C47.6708 13.728 47.7628 14.032 47.7628 14.416C47.7628 14.816 47.6628 15.148 47.4628 15.412C47.2708 15.668 47.0148 15.856 46.6948 15.976C46.3828 16.096 46.0428 16.156 45.6748 16.156C45.3548 16.156 45.0348 16.112 44.7148 16.024C44.3948 15.936 44.0988 15.812 43.8268 15.652L44.2468 14.92C44.4388 15.064 44.6548 15.18 44.8948 15.268C45.1348 15.356 45.3668 15.4 45.5908 15.4C45.8948 15.4 46.1588 15.328 46.3828 15.184C46.6148 15.04 46.7308 14.824 46.7308 14.536C46.7308 14.336 46.6668 14.172 46.5388 14.044C46.4188 13.908 46.2628 13.788 46.0708 13.684C45.8788 13.58 45.6788 13.48 45.4708 13.384C45.2308 13.264 44.9948 13.136 44.7628 13C44.5388 12.856 44.3548 12.676 44.2108 12.46C44.0668 12.244 43.9948 11.968 43.9948 11.632C43.9948 11.248 44.0948 10.928 44.2948 10.672C44.5028 10.416 44.7708 10.224 45.0988 10.096C45.4268 9.96 45.7748 9.892 46.1428 9.892ZM50.5911 8.032C50.5911 8.232 50.5191 8.404 50.3751 8.548C50.2391 8.692 50.0671 8.764 49.8591 8.764C49.6591 8.764 49.4871 8.692 49.3431 8.548C49.2071 8.404 49.1391 8.232 49.1391 8.032C49.1391 7.832 49.2071 7.66 49.3431 7.516C49.4871 7.372 49.6591 7.3 49.8591 7.3C50.0591 7.3 50.2311 7.372 50.3751 7.516C50.5191 7.66 50.5911 7.832 50.5911 8.032ZM50.3751 10.036V16H49.3791V10.744L49.2351 10.036H50.3751ZM55.0188 6.76C55.4428 6.76 55.8308 6.86 56.1828 7.06L55.9068 7.804C55.8028 7.708 55.6668 7.636 55.4988 7.588C55.3388 7.532 55.1868 7.504 55.0428 7.504C54.6908 7.504 54.4108 7.584 54.2028 7.744C54.0028 7.904 53.8508 8.116 53.7468 8.38C53.6508 8.636 53.5868 8.912 53.5548 9.208C53.5228 9.496 53.5068 9.772 53.5068 10.036H55.2228L55.0068 10.78H53.5068V16H52.5228V10.78H51.6228V10.156C51.7508 10.14 51.8788 10.128 52.0068 10.12C52.1428 10.104 52.2588 10.064 52.3548 10C52.4508 9.936 52.5148 9.828 52.5468 9.676C52.6268 9.308 52.6868 9.012 52.7268 8.788C52.7668 8.556 52.8228 8.352 52.8948 8.176C52.9668 8 53.0828 7.808 53.2428 7.6C53.4428 7.344 53.6908 7.14 53.9868 6.988C54.2828 6.836 54.6268 6.76 55.0188 6.76ZM56.0638 10.036C56.2398 10.532 56.4118 11.028 56.5798 11.524C56.7558 12.02 56.9318 12.528 57.1078 13.048C57.1958 13.32 57.2838 13.596 57.3718 13.876C57.4678 14.148 57.5598 14.42 57.6478 14.692C57.7358 14.412 57.8238 14.136 57.9118 13.864C58.0078 13.592 58.0998 13.32 58.1878 13.048C58.3638 12.528 58.5358 12.02 58.7038 11.524C58.8798 11.028 59.0558 10.532 59.2318 10.036H60.1678L58.0558 16.024C57.9678 16.272 57.8558 16.544 57.7198 16.84C57.5838 17.144 57.4238 17.428 57.2398 17.692C57.0558 17.956 56.8398 18.172 56.5918 18.34C56.3438 18.516 56.0638 18.604 55.7518 18.604H55.2958V17.8H55.4278C55.7638 17.8 56.0398 17.7 56.2558 17.5C56.4798 17.3 56.6638 17.056 56.8078 16.768C56.9518 16.488 57.0718 16.216 57.1678 15.952L54.9838 10.036H56.0638Z" fill="black"/>
</svg>
